{
  "asset": {
    "copyright": "VRArchitect",
    "generator": "Khronos glTF Blender I/O v3.3.32",
    "version": "2.0"
  },
  "extensionsUsed": [
    "KHR_materials_specular"
  ],
  "scene": 0,
  "scenes": [
    {
      "name": "Scene",
      "nodes": [
        8
      ]
    }
  ],
  "nodes": [
    {
      "mesh": 0,
      "name": "01_Wood_Material #3_0"
    },
    {
      "children": [
        0
      ],
      "name": "01_Wood",
      "scale": [
        5.531081199645996,
        5.531081199645996,
        5.531081199645996
      ],
      "translation": [
        201.18630981445312,
        -958.16455078125,
        -156.98121643066406
      ],
      "rotation": [
        0,
        0,
        0,
        1
      ]
    },
    {
      "mesh": 1,
      "name": "02_Base_Material #2_0",
      "translation": [
        0,
        -0.000003874301910400391,
        0.000015079975128173828
      ],
      "rotation": [
        0,
        0,
        0,
        1
      ],
      "scale": [
        1,
        1,
        1
      ]
    },
    {
      "children": [
        2
      ],
      "name": "02_Base",
      "translation": [
        31.05181884765625,
        -1027.7982177734375,
        -0.000015437602996826172
      ],
      "rotation": [
        0,
        0,
        0,
        1
      ],
      "scale": [
        1,
        1,
        1
      ]
    },
    {
      "mesh": 2,
      "name": "Object001_Material #5_0",
      "translation": [
        0,
        -0.000003874301910400391,
        0.000015079975128173828
      ],
      "rotation": [
        0,
        0,
        0,
        1
      ],
      "scale": [
        1,
        1,
        1
      ]
    },
    {
      "children": [
        4
      ],
      "name": "Object001",
      "translation": [
        31.05181884765625,
        -1027.7982177734375,
        -0.000015437602996826172
      ],
      "rotation": [
        0,
        0,
        0,
        1
      ],
      "scale": [
        1,
        1,
        1
      ]
    },
    {
      "children": [
        1,
        3,
        5
      ],
      "name": "RootNode",
      "translation": [
        0,
        -0.000003427267074584961,
        -0.0000025033950805664062
      ],
      "rotation": [
        0,
        0,
        0,
        1
      ],
      "scale": [
        1,
        1,
        1
      ]
    },
    {
      "children": [
        6
      ],
      "name": "74cbb7007938420a968fc3d316d5a917.fbx",
      "rotation": [
        1,
        0,
        0,
        5.684341539136106e-11
      ],
      "scale": [
        0.0010000000474974513,
        0.0010000000474974513,
        0.0010000000474974513
      ],
      "translation": [
        0,
        0,
        0
      ]
    },
    {
      "children": [
        7
      ],
      "name": "Sketchfab_model",
      "rotation": [
        0.7077004313468933,
        0,
        0,
        0.7065126895904541
      ],
      "scale": [
        1.4560452699661255,
        1.4560452699661255,
        1.4560452699661255
      ],
      "translation": [
        0.007096882443875074,
        0.3462953567504883,
        -1.3946664333343506
      ]
    }
  ],
  "materials": [
    {
      "doubleSided": true,
      "extensions": {
        "KHR_materials_specular": {
          "specularColorTexture": {
            "index": 0
          }
        }
      },
      "name": "Material_3",
      "pbrMetallicRoughness": {
        "baseColorTexture": {
          "index": 0,
          "texCoord": 0
        },
        "metallicFactor": 0,
        "roughnessFactor": 0.37638211250305176,
        "baseColorFactor": [
          1,
          1,
          1,
          1
        ]
      },
      "emissiveFactor": [
        0,
        0,
        0
      ],
      "alphaMode": "OPAQUE"
    },
    {
      "doubleSided": true,
      "extensions": {
        "KHR_materials_specular": {
          "specularColorTexture": {
            "index": 2
          }
        }
      },
      "name": "Material_2",
      "pbrMetallicRoughness": {
        "baseColorTexture": {
          "index": 1,
          "texCoord": 0
        },
        "metallicFactor": 0,
        "baseColorFactor": [
          1,
          1,
          1,
          1
        ],
        "roughnessFactor": 1
      },
      "emissiveFactor": [
        0,
        0,
        0
      ],
      "alphaMode": "OPAQUE"
    },
    {
      "doubleSided": true,
      "name": "Material_5",
      "pbrMetallicRoughness": {
        "baseColorTexture": {
          "index": 2,
          "texCoord": 0
        },
        "metallicFactor": 0,
        "roughnessFactor": 0.6000000238418579,
        "baseColorFactor": [
          1,
          1,
          1,
          1
        ]
      },
      "emissiveFactor": [
        0,
        0,
        0
      ],
      "alphaMode": "OPAQUE"
    }
  ],
  "meshes": [
    {
      "name": "01_Wood_Material #3_0",
      "primitives": [
        {
          "attributes": {
            "POSITION": 0,
            "NORMAL": 1,
            "TEXCOORD_0": 2
          },
          "indices": 3,
          "material": 0,
          "mode": 4
        }
      ]
    },
    {
      "name": "02_Base_Material #2_0",
      "primitives": [
        {
          "attributes": {
            "POSITION": 4,
            "NORMAL": 5,
            "TEXCOORD_0": 6
          },
          "indices": 7,
          "material": 1,
          "mode": 4
        }
      ]
    },
    {
      "name": "Object001_Material #5_0",
      "primitives": [
        {
          "attributes": {
            "POSITION": 8,
            "NORMAL": 9,
            "TEXCOORD_0": 10
          },
          "indices": 11,
          "material": 2,
          "mode": 4
        }
      ]
    }
  ],
  "textures": [
    {
      "sampler": 0,
      "source": 0
    },
    {
      "sampler": 0,
      "source": 1
    },
    {
      "sampler": 0,
      "source": 2
    }
  ],
  "images": [
    {
      "bufferView": 12,
      "mimeType": "image/jpeg",
      "name": "Material_3_baseColor"
    },
    {
      "bufferView": 13,
      "mimeType": "image/jpeg",
      "name": "Material_2_baseColor"
    },
    {
      "bufferView": 14,
      "mimeType": "image/jpeg",
      "name": "Material_5_baseColor"
    }
  ],
  "accessors": [
    {
      "bufferView": 0,
      "componentType": 5126,
      "count": 15217,
      "max": [
        -0.18419302999973297,
        48.240013122558594,
        83.64410400390625
      ],
      "min": [
        -73.32903289794922,
        -48.240013122558594,
        -14.353111267089844
      ],
      "type": "VEC3",
      "byteOffset": 0
    },
    {
      "bufferView": 1,
      "componentType": 5126,
      "count": 15217,
      "type": "VEC3",
      "byteOffset": 0
    },
    {
      "bufferView": 2,
      "componentType": 5126,
      "count": 15217,
      "type": "VEC2",
      "byteOffset": 0
    },
    {
      "bufferView": 3,
      "componentType": 5123,
      "count": 68556,
      "type": "SCALAR",
      "byteOffset": 0
    },
    {
      "bufferView": 4,
      "componentType": 5126,
      "count": 831,
      "max": [
        158.52230834960938,
        317.058837890625,
        294.7303161621094
      ],
      "min": [
        -225.00006103515625,
        -205.206787109375,
        -11.809466361999512
      ],
      "type": "VEC3",
      "byteOffset": 0
    },
    {
      "bufferView": 5,
      "componentType": 5126,
      "count": 831,
      "type": "VEC3",
      "byteOffset": 0
    },
    {
      "bufferView": 6,
      "componentType": 5126,
      "count": 831,
      "type": "VEC2",
      "byteOffset": 0
    },
    {
      "bufferView": 7,
      "componentType": 5123,
      "count": 1380,
      "type": "SCALAR",
      "byteOffset": 0
    },
    {
      "bufferView": 8,
      "componentType": 5126,
      "count": 10753,
      "max": [
        158.52230834960938,
        321.46649169921875,
        309.7274169921875
      ],
      "min": [
        -225.00070190429688,
        -217.09095764160156,
        -8.383365631103516
      ],
      "type": "VEC3",
      "byteOffset": 0
    },
    {
      "bufferView": 9,
      "componentType": 5126,
      "count": 10753,
      "type": "VEC3",
      "byteOffset": 0
    },
    {
      "bufferView": 10,
      "componentType": 5126,
      "count": 10753,
      "type": "VEC2",
      "byteOffset": 0
    },
    {
      "bufferView": 11,
      "componentType": 5123,
      "count": 38244,
      "type": "SCALAR",
      "byteOffset": 0
    }
  ],
  "bufferViews": [
    {
      "buffer": 0,
      "byteLength": 182604,
      "byteOffset": 0,
      "target": 34962,
      "byteStride": 12
    },
    {
      "buffer": 0,
      "byteLength": 182604,
      "byteOffset": 182608,
      "target": 34962,
      "byteStride": 12
    },
    {
      "buffer": 0,
      "byteLength": 121736,
      "byteOffset": 365216,
      "target": 34962,
      "byteStride": 8
    },
    {
      "buffer": 0,
      "byteLength": 137112,
      "byteOffset": 486952,
      "target": 34963
    },
    {
      "buffer": 0,
      "byteLength": 9972,
      "byteOffset": 624064,
      "target": 34962,
      "byteStride": 12
    },
    {
      "buffer": 0,
      "byteLength": 9972,
      "byteOffset": 634040,
      "target": 34962,
      "byteStride": 12
    },
    {
      "buffer": 0,
      "byteLength": 6648,
      "byteOffset": 644016,
      "target": 34962,
      "byteStride": 8
    },
    {
      "buffer": 0,
      "byteLength": 2760,
      "byteOffset": 650664,
      "target": 34963
    },
    {
      "buffer": 0,
      "byteLength": 129036,
      "byteOffset": 653424,
      "target": 34962,
      "byteStride": 12
    },
    {
      "buffer": 0,
      "byteLength": 129036,
      "byteOffset": 782464,
      "target": 34962,
      "byteStride": 12
    },
    {
      "buffer": 0,
      "byteLength": 86024,
      "byteOffset": 911504,
      "target": 34962,
      "byteStride": 8
    },
    {
      "buffer": 0,
      "byteLength": 76488,
      "byteOffset": 997528,
      "target": 34963
    },
    {
      "buffer": 0,
      "byteOffset": 1074016,
      "byteLength": 183437
    },
    {
      "buffer": 0,
      "byteOffset": 1257456,
      "byteLength": 307157
    },
    {
      "buffer": 0,
      "byteOffset": 1564616,
      "byteLength": 119390
    }
  ],
  "samplers": [
    {
      "magFilter": 9729,
      "minFilter": 9987,
      "wrapS": 10497,
      "wrapT": 10497
    }
  ],
  "buffers": [
    {
      "name": "Chair",
      "byteLength": 1684008,
      "uri": "data:application/octet-stream;base64,"
    }
  ]
}
